<svg width="55" height="73" viewBox="0 0 55 73" fill="none" xmlns="http://www.w3.org/2000/svg">
<g filter="url(#filter0_i_102_2)">
<line x1="49" y1="72" x2="49" y2="4" stroke="#F2F2F1" stroke-width="4"/>
</g>
<path d="M51 14.7059C51 20.3912 47.548 25 43.2899 25C39.0317 25 43.2899 22.1176 45.0979 14.2941C45.0979 8.60883 38.1185 4 42.3767 4C46.6349 4 51 9.0206 51 14.7059Z" fill="#FF3F3F"/>
<path d="M18.3511 14.8L41.6809 4L49 14.8L44.4255 24.8L24.7553 29.2L7.82979 32L6 19.6L18.3511 14.8Z" fill="#FF3F3F"/>
<ellipse cx="8" cy="25.5" rx="5" ry="6.5" fill="#991B1B"/>
<path d="M43 17.5565C43 20.4845 41.5571 24.2653 39.3077 25.0523C37.0583 25.8394 38.268 25.4764 33.7692 26.657C29.2705 27.8375 33.1028 26.214 34.4524 17.95C34.4524 15.5699 33.1028 12.047 31.3033 10.4729C30.6216 9.29222 30.749 9.56141 35.3521 7.32476C39.401 5.35743 43 12.7751 43 17.5565Z" fill="#F2F2F1"/>
<path d="M27 22.5616C27 24.8847 24.2405 28.7008 23.2692 28.9187C22.298 29.1366 22.9272 28.9946 18.3767 29.7222C13.8262 30.4497 18.1227 30.1678 19.5263 23.6108C19.5263 21.7224 17.1869 18.927 15.3154 17.678C14.6065 16.7412 14.7387 16.9545 19.5263 15.1802C22.68 14.0114 27 18.7678 27 22.5616Z" fill="#F2F2F1"/>
<defs>
<filter id="filter0_i_102_2" x="47" y="4" width="4" height="68" filterUnits="userSpaceOnUse" color-interpolation-filters="sRGB">
<feFlood flood-opacity="0" result="BackgroundImageFix"/>
<feBlend mode="normal" in="SourceGraphic" in2="BackgroundImageFix" result="shape"/>
<feColorMatrix in="SourceAlpha" type="matrix" values="0 0 0 0 0 0 0 0 0 0 0 0 0 0 0 0 0 0 127 0" result="hardAlpha"/>
<feOffset dx="1"/>
<feComposite in2="hardAlpha" operator="arithmetic" k2="-1" k3="1"/>
<feColorMatrix type="matrix" values="0 0 0 0 0 0 0 0 0 0 0 0 0 0 0 0 0 0 0.08 0"/>
<feBlend mode="normal" in2="shape" result="effect1_innerShadow_102_2"/>
</filter>
</defs>
</svg>
