<svg width="41" height="21" viewBox="0 0 41 21" fill="none" xmlns="http://www.w3.org/2000/svg">
<path d="M30 8.5C30 10.5441 29.1823 12.3972 27.8561 13.75C26.4949 15.1385 21.598 13.75 19.5 13.75C15.3579 13.75 15 12.6421 15 8.5C15 4.35786 18.3579 1 22.5 1C26.6421 1 30 4.35786 30 8.5Z" fill="#FF6767"/>
<path d="M20.5 6.5249L24.2315 10.8138L40 20.9999H1L9.57778 12.2434L20.5 6.5249Z" fill="#48484A"/>
<path d="M25.8342 10C26.8234 10.1242 27.1158 10.437 27.2814 11.3266C27.7351 11.0229 27.9991 10.9241 28.5477 11.3266C28.9228 11.7113 28.9086 11.9407 28.8492 12.3518C29.6924 12.311 29.8582 12.5757 29.995 13.196C30.0464 13.9955 29.7041 14.1471 28.9664 14.3159H24.2663C23.3305 14.1505 22.9993 13.8767 23 12.8342C23.145 11.8797 23.5627 11.6931 24.5678 11.6281C24.6489 10.5929 24.8609 10.1738 25.8342 10Z" fill="#F2F2F1"/>
<path d="M12.0488 6C13.462 6.17747 13.8798 6.62431 14.1163 7.89518C14.7644 7.46132 15.1415 7.32014 15.9253 7.89518C16.4611 8.44478 16.4409 8.77245 16.356 9.35965C17.5605 9.30143 17.7975 9.67958 17.9928 10.5657C18.0663 11.7079 17.5773 11.9244 16.5234 12.1656H9.80904C8.4722 11.9293 7.99898 11.5381 8 10.0488C8.20715 8.68527 8.80382 8.41869 10.2398 8.32591C10.3555 6.84702 10.6584 6.24822 12.0488 6Z" fill="#F2F2F1"/>
</svg>
